<svg version="1.1" id="Layer_1" xmlns="http://www.w3.org/2000/svg" xmlns:xlink="http://www.w3.org/1999/xlink" x="0px" y="0px"
	 width="100%" viewBox="0 0 128 128" enable-background="new 0 0 128 128" xml:space="preserve">
<path fill="#000000" opacity="1.000000" stroke="none" 
	d="
M74.000000,129.000000 
	C49.333332,129.000000 25.166666,129.000000 1.000000,129.000000 
	C1.000000,86.333336 1.000000,43.666668 1.000000,1.000000 
	C43.666668,1.000000 86.333336,1.000000 129.000000,1.000000 
	C129.000000,43.666668 129.000000,86.333336 129.000000,129.000000 
	C110.833336,129.000000 92.666664,129.000000 74.000000,129.000000 
M28.824640,95.994423 
	C29.782890,96.051292 30.741142,96.108162 31.853752,96.174194 
	C31.124119,96.869728 30.587067,97.381676 30.050014,97.893623 
	C32.648418,100.007599 34.673698,103.152283 38.923473,102.158203 
	C37.993874,103.136444 37.442085,103.717110 36.890293,104.297768 
	C40.045238,103.346359 44.117500,109.221725 45.802982,103.279442 
	C47.135040,103.992973 48.322723,104.629166 48.665653,104.812859 
	C50.598801,100.606468 52.257450,96.997360 54.133720,92.914719 
	C52.612347,92.584999 51.234447,92.384659 49.918285,91.982338 
	C46.258392,90.863564 42.332886,90.195290 39.031643,88.396126 
	C26.647017,81.646530 24.045481,63.094841 29.420517,53.240471 
	C31.526043,49.380283 33.012943,45.880653 32.191624,41.227009 
	C31.641449,38.109669 32.914940,34.670471 33.553432,30.071356 
	C39.222595,32.702526 43.883774,34.898209 48.581532,37.012634 
	C49.317677,37.343971 50.221672,37.431015 51.045174,37.419788 
	C59.476498,37.304821 67.913879,36.905376 76.334305,37.137947 
	C79.067390,37.213432 81.273811,37.131119 83.792770,35.815300 
	C87.652863,33.798923 91.905388,32.533798 96.751411,30.655176 
	C97.277618,35.548965 98.561867,39.146008 97.770889,42.206764 
	C96.735443,46.213501 98.192696,48.968925 100.007309,51.923424 
	C103.071045,56.911697 103.584030,62.440285 102.931023,67.982872 
	C101.549988,79.704727 96.175919,88.346413 83.766251,91.050781 
	C81.100494,91.631714 78.479195,92.416710 75.543205,93.184654 
	C82.587929,103.160713 78.763840,113.964378 80.410103,124.327400 
	C82.527420,123.924332 84.486809,123.759735 86.310242,123.172798 
	C111.719933,114.993790 129.476990,86.093651 125.180611,58.735401 
	C122.311935,40.468346 114.053268,26.134975 98.717621,16.010752 
	C81.277145,4.496969 62.643188,2.667188 43.092979,9.973499 
	C18.879663,19.022507 5.575407,39.741417 4.204819,63.174026 
	C2.910069,85.310043 12.053606,103.424118 30.120731,116.419868 
	C35.829605,120.526291 42.034687,124.778145 50.265419,123.838890 
	C50.265419,118.700417 50.265419,113.920181 50.265419,110.105072 
	C45.891815,109.748405 42.254253,109.618668 38.666988,109.124100 
	C31.439878,108.127708 30.094610,101.610519 27.658831,96.262253 
	C27.798489,96.149200 27.938145,96.036148 28.824640,95.994423 
z"/>
<path fill="#FFFFFF" opacity="1.000000" stroke="none" 
	d="
M27.211506,96.563019 
	C30.094610,101.610519 31.439878,108.127708 38.666988,109.124100 
	C42.254253,109.618668 45.891815,109.748405 50.265419,110.105072 
	C50.265419,113.920181 50.265419,118.700417 50.265419,123.838890 
	C42.034687,124.778145 35.829605,120.526291 30.120731,116.419868 
	C12.053606,103.424118 2.910069,85.310043 4.204819,63.174026 
	C5.575407,39.741417 18.879663,19.022507 43.092979,9.973499 
	C62.643188,2.667188 81.277145,4.496969 98.717621,16.010752 
	C114.053268,26.134975 122.311935,40.468346 125.180611,58.735401 
	C129.476990,86.093651 111.719933,114.993790 86.310242,123.172798 
	C84.486809,123.759735 82.527420,123.924332 80.410103,124.327400 
	C78.763840,113.964378 82.587929,103.160713 75.543205,93.184654 
	C78.479195,92.416710 81.100494,91.631714 83.766251,91.050781 
	C96.175919,88.346413 101.549988,79.704727 102.931023,67.982872 
	C103.584030,62.440285 103.071045,56.911697 100.007309,51.923424 
	C98.192696,48.968925 96.735443,46.213501 97.770889,42.206764 
	C98.561867,39.146008 97.277618,35.548965 96.751411,30.655176 
	C91.905388,32.533798 87.652863,33.798923 83.792770,35.815300 
	C81.273811,37.131119 79.067390,37.213432 76.334305,37.137947 
	C67.913879,36.905376 59.476498,37.304821 51.045174,37.419788 
	C50.221672,37.431015 49.317677,37.343971 48.581532,37.012634 
	C43.883774,34.898209 39.222595,32.702526 33.553432,30.071356 
	C32.914940,34.670471 31.641449,38.109669 32.191624,41.227009 
	C33.012943,45.880653 31.526043,49.380283 29.420517,53.240471 
	C24.045481,63.094841 26.647017,81.646530 39.031643,88.396126 
	C42.332886,90.195290 46.258392,90.863564 49.918285,91.982338 
	C51.234447,92.384659 52.612347,92.584999 54.133720,92.914719 
	C52.257450,96.997360 50.598801,100.606468 48.665653,104.812859 
	C48.322723,104.629166 47.135040,103.992973 45.802982,103.279442 
	C44.117500,109.221725 40.045238,103.346359 36.890293,104.297768 
	C37.442085,103.717110 37.993874,103.136444 38.923473,102.158203 
	C34.673698,103.152283 32.648418,100.007599 30.050014,97.893623 
	C30.587067,97.381676 31.124119,96.869728 31.853752,96.174194 
	C30.741142,96.108162 29.782890,96.051292 28.414995,95.571831 
	C27.029375,94.407066 26.053402,93.664902 25.153807,92.577011 
	C25.346312,92.122543 25.487186,92.029739 25.570818,91.900032 
	C25.638926,91.794403 25.638500,91.644585 25.668465,91.514374 
	C24.215015,91.306404 22.761570,91.098434 21.308125,90.890465 
	C21.216375,91.139793 21.124626,91.389122 21.032877,91.638451 
	C22.158962,92.348404 23.285048,93.058350 24.595646,93.984222 
	C25.590609,94.987770 26.401056,95.775398 27.211506,96.563019 
z"/>
<path fill="#000000" opacity="1.000000" stroke="none" 
	d="
M24.411133,93.768295 
	C23.285048,93.058350 22.158962,92.348404 21.032877,91.638451 
	C21.124626,91.389122 21.216375,91.139793 21.308125,90.890465 
	C22.761570,91.098434 24.215015,91.306404 25.668465,91.514374 
	C25.638500,91.644585 25.638926,91.794403 25.570818,91.900032 
	C25.487186,92.029739 25.346312,92.122543 24.978367,92.781425 
	C24.621410,93.477135 24.516272,93.622719 24.411133,93.768295 
z"/>
<path fill="#000000" opacity="1.000000" stroke="none" 
	d="
M27.435167,96.412636 
	C26.401056,95.775398 25.590609,94.987770 24.595646,93.984222 
	C24.516272,93.622719 24.621410,93.477135 24.901989,93.127136 
	C26.053402,93.664902 27.029375,94.407066 28.041576,95.536171 
	C27.938145,96.036148 27.798489,96.149200 27.435167,96.412636 
z"/>
</svg>